<mxfile host="65bd71144e">
    <diagram id="HIP3nbAZw_EuaXWnEj3U" name="Page-1">
        <mxGraphModel dx="846" dy="676" grid="1" gridSize="10" guides="1" tooltips="1" connect="1" arrows="1" fold="1" page="1" pageScale="1" pageWidth="850" pageHeight="1100" math="0" shadow="0">
            <root>
                <mxCell id="0"/>
                <mxCell id="1" parent="0"/>
                <mxCell id="7" value="http://ics2o.mths.ca" style="swimlane;whiteSpace=wrap;html=1;" parent="1" vertex="1">
                    <mxGeometry x="160" y="70" width="480" height="440" as="geometry"/>
                </mxCell>
                <mxCell id="8" value="" style="shape=image;verticalLabelPosition=bottom;labelBackgroundColor=default;verticalAlign=top;aspect=fixed;imageAspect=0;image=data:image/png,iVBORw0KGgoAAAANSUhEUgAABDgAAAQ4CAYAAADsEGyPAAAACXBIWXMAAA7EAAAOxAGVKw4bAAAFJGlUWHRYTUw6Y29tLmFkb2JlLnhtcAAAAAAAPD94cGFja2V0IGJlZ2luPSfvu78nIGlkPSdXNU0wTXBDZWhpSHpyZVN6TlRjemtjOWQnPz4KPHg6eG1wbWV0YSB4bWxuczp4PSdhZG9iZTpuczptZXRhLyc+CjxyZGY6UkRGIHhtbG5zOnJkZj0naHR0cDovL3d3dy53My5vcmcvMTk5OS8wMi8yMi1yZGYtc3ludGF4LW5zIyc+CgogPHJkZjpEZXNjcmlwdGlvbiByZGY6YWJvdXQ9JycKICB4bWxuczpBdHRyaWI9J2h0dHA6Ly9ucy5hdHRyaWJ1dGlvbi5jb20vYWRzLzEuMC8nPgogIDxBdHRyaWI6QWRzPgogICA8cmRmOlNlcT4KICAgIDxyZGY6bGkgcmRmOnBhcnNlVHlwZT0nUmVzb3VyY2UnPgogICAgIDxBdHRyaWI6Q3JlYXRlZD4yMDI1LTA2LTA0PC9BdHRyaWI6Q3JlYXRlZD4KICAgICA8QXR0cmliOkV4dElkPjUyMWQ0NzlkLWRkNzMtNDU1ZS1hZjUyLTdlZjMyYmMxOTJhZTwvQXR0cmliOkV4dElkPgogICAgIDxBdHRyaWI6RmJJZD41MjUyNjU5MTQxNzk1ODA8L0F0dHJpYjpGYklkPgogICAgIDxBdHRyaWI6VG91Y2hUeXBlPjI8L0F0dHJpYjpUb3VjaFR5cGU+CiAgICA8L3JkZjpsaT4KICAgPC9yZGY6U2VxPgogIDwvQXR0cmliOkFkcz4KIDwvcmRmOkRlc2NyaXB0aW9uPgoKIDxyZGY6RGVzY3JpcHRpb24gcmRmOmFib3V0PScnCiAgeG1sbnM6ZGM9J2h0dHA6Ly9wdXJsLm9yZy9kYy9lbGVtZW50cy8xLjEvJz4KICA8ZGM6dGl0bGU+CiAgIDxyZGY6QWx0PgogICAgPHJkZjpsaSB4bWw6bGFuZz0neC1kZWZhdWx0Jz5OYXZ5IEJsdWUgQW5kIFllbGxvdyBDYWxjdWxhdG9yIEZhY2Vib29rICZhbXA7IEluc3RhZ3JhbSBQb3N0IC0gMTwvcmRmOmxpPgogICA8L3JkZjpBbHQ+CiAgPC9kYzp0aXRsZT4KIDwvcmRmOkRlc2NyaXB0aW9uPgoKIDxyZGY6RGVzY3JpcHRpb24gcmRmOmFib3V0PScnCiAgeG1sbnM6cGRmPSdodHRwOi8vbnMuYWRvYmUuY29tL3BkZi8xLjMvJz4KICA8cGRmOkF1dGhvcj50cmlzaGEucmF5PC9wZGY6QXV0aG9yPgogPC9yZGY6RGVzY3JpcHRpb24+CgogPHJkZjpEZXNjcmlwdGlvbiByZGY6YWJvdXQ9JycKICB4bWxuczp4bXA9J2h0dHA6Ly9ucy5hZG9iZS5jb20veGFwLzEuMC8nPgogIDx4bXA6Q3JlYXRvclRvb2w+Q2FudmEgKFJlbmRlcmVyKSBkb2M9REFHcGFKNmRVOVUgdXNlcj1VQUZNdGZidDFxYyBicmFuZD1CQUJ4OW9iV2JrMCB0ZW1wbGF0ZT1OYXZ5IEJsdWUgQW5kIFllbGxvdyBDYWxjdWxhdG9yIEZhY2Vib29rICZhbXA7IEluc3RhZ3JhbSBQb3N0PC94bXA6Q3JlYXRvclRvb2w+CiA8L3JkZjpEZXNjcmlwdGlvbj4KPC9yZGY6UkRGPgo8L3g6eG1wbWV0YT4KPD94cGFja2V0IGVuZD0ncic/PjJJhPsAAHaLSURBVHic7NhBDQAgEMAwwL/nQwQPsqRVsPf2zMwCAAAACDu/AwAAAABeGRwAAABAnsEBAAAA5BkcAAAAQJ7BAQAAAOQZHAAAAECewQEAAADkGRwAAABAnsEBAAAA5BkcAAAAQJ7BAQAAAOQZHAAAAECewQEAAADkGRwAAABAnsEBAAAA5BkcAAAAQJ7BAQAAAOQZHAAAAECewQEAAADkGRwAAABAnsEBAAAA5BkcAAAAQJ7BAQAAAOQZHAAAAECewQEAAADkGRwAAABAnsEBAAAA5BkcAAAAQJ7BAQAAAOQZHAAAAECewQEAAADkGRwAAABAnsEBAAAA5BkcAAAAQJ7BAQAAAOQZHAAAAECewQEAAADkGRwAAABAnsEBAAAA5BkcAAAAQJ7BAQAAAOQZHAAAAECewQEAAADkGRwAAABAnsEBAAAA5BkcAAAAQJ7BAQAAAOQZHAAAAECewQEAAADkGRwAAABAnsEBAAAA5BkcAAAAQJ7BAQAAAOQZHAAAAECewQEAAADkGRwAAABAnsEBAAAA5BkcAAAAQJ7BAQAAAOQZHAAAAECewQEAAADkGRwAAABA3gUAAP//7NgBCQAAAICg/6/bEegMBQcAAACwJzgAAACAPcEBAAAA7AkOAAAAYE9wAAAAAHuCAwAAANgTHAAAAMCe4AAAAAD2BAcAAACwJzgAAACAPcEBAAAA7AkOAAAAYE9wAAAAAHuCAwAAANgTHAAAAMCe4AAAAAD2BAcAAACwJzgAAACAPcEBAAAA7AkOAAAAYE9wAAAAAHuCAwAAANgTHAAAAMCe4AAAAAD2BAcAAACwJzgAAACAPcEBAAAA7AkOAAAAYE9wAAAAAHuCAwAAANgTHAAAAMCe4AAAAAD2BAcAAACwJzgAAACAPcEBAAAA7AkOAAAAYE9wAAAAAHuCAwAAANgTHAAAAMCe4AAAAAD2BAcAAACwJzgAAACAPcEBAAAA7AkOAAAAYE9wAAAAAHuCAwAAANgTHAAAAMCe4AAAAAD2BAcAAACwJzgAAACAPcEBAAAA7AkOAAAAYE9wAAAAAHuCAwAAANgTHAAAAMCe4AAAAAD2BAcAAACwJzgAAACAPcEBAAAA7AkOAAAAYE9wAAAAAHuCAwAAANgTHAAAAMCe4AAAAAD2AgAA///s2AEJAAAAgKD/r9sR6AwFBwAAALAnOAAAAIA9wQEAAADsCQ4AAABgT3AAAAAAe4IDAAAA2BMcAAAAwJ7gAAAAAPYEBwAAALAnOAAAAIA9wQEAAADsCQ4AAABgT3AAAAAAe4IDAAAA2BMcAAAAwJ7gAAAAAPYEBwAAALAnOAAAAIA9wQEAAADsCQ4AAABgT3AAAAAAe4IDAAAA2BMcAAAAwJ7gAAAAAPYEBwAAALAnOAAAAIA9wQEAAADsCQ4AAABgT3AAAAAAe4IDAAAA2BMcAAAAwJ7gAAAAAPYEBwAAALAnOAAAAIA9wQEAAADsCQ4AAABgT3AAAAAAe4IDAAAA2BMcAAAAwJ7gAAAAAPYEBwAAALAnOAAAAIA9wQEAAADsCQ4AAABgT3AAAAAAe4IDAAAA2BMcAAAAwJ7gAAAAAPYEBwAAALAnOAAAAIA9wQEAAADsCQ4AAABgT3AAAAAAe4IDAAAA2BMcAAAAwJ7gAAAAAPYEBwAAALAnOAAAAIA9wQEAAADsCQ4AAABgT3AAAAAAe4IDAAAA2BMcAAAAwF4AAAD//+zcTWgXdBzH8W+1zYchbVJOB84HdIdMLWvQrViJUUYnIbDCOuhRA4MgD+mpoidC7BCFFR6MTCuUIfRASKjgEg2sibOx1Vy6/j78t/2dmh2SiJ4sn37/3/6v1+X7O37O78NP4AAAAACyJ3AAAAAA2RM4AAAAgOwJHAAAAED2BA4AAAAgewIHAAAAkD2BAwAAAMiewAEAAABkT+AAAAAAsidwAAAAANkTOAAAAIDsCRwAAABA9gQOAAAAIHsCBwAAAJA9gQMAAADInsABAAAAZE/gAAAAALIncAAAAADZEzgAAACA7AkcAAAAQPYEDgAAACB7AgcAAACQPYEDAAAAyJ7AAQAAAGRP4AAAAACyJ3AAAAAA2RM4AAAAgOwJHAAAAED2BA4AAAAgewIHAAAAkD2BAwAAAMiewAEAAABkT+AAAAAAsidwAAAAANkTOAAAAIDsCRwAAABA9gQOAAAAIHsCBwAAAJA9gQMAAADIXlXqAQBc3MDx41H8+ecoFgoxUCjEcKkUZ8+cibPDw3Huwj07PBy/nDuXeipAVm6oro6q6uqoqqn57V1TE1XV1TFq7Niora+PcePHR219fYwZNy71VAAuQuAAKBOnBwejr7Mz+g4fjqNdXdHX2RmF3t443teXehpAxauqqYkbJ0yI8Y2N0TB9ekyYOjUapk2LSTNnpp4GwAXXnT9//nzqEQCV6FR/fxzYsSMO7dkTP3Z0xImffko9CYBLcNPkydF0660xo6UlZrS0xOja2tSTACqSwAFwDXW2t0fHzp1xqL09+jo7U88B4CpomjUrZrS0RPNdd0Vjc3PqOQAVQ+AAuMp6DhyIfZ9+Gt98/nkUC4XUcwC4hm5qaoq5990Xc+fPj7qGhtRzAEY0gQPgKigNDMTOTZuiva0tjh85knoOAGVg8i23xJ0LF8bt99+fegrAiCRwAFxBpWIxdmzcGLs2b47Tg4Op5wBQhuonTYq7Fy+OeQ88kHoKwIgicABcAUOnTsWXGzbE7o8+ijOnT6eeA0AG6hoa4u5HH407Hnww9RSAEUHgALhM7du2xfY334zBEydSTwEgQzdPmRIPr1wZTbNmpZ4CkDWBA+AS9R48GJ+8+mr0fPtt6ikAjAC3LVgQC5Yti9q6utRTALIkcABcgrZ16+KrDz5IPQOAEWZ0bW0sXLEi5tx7b+opANkROAD+h2Pd3fH+mjVx5NCh1FMAGMHmzp8fD61YETVjxqSeApANgQPgP9qzdWtsW7vWJ6IAXBN1EyfGI889F43NzamnAGRB4AD4Dz58/vnYu3176hkAVKBFq1bF7NbW1DMAyp7AAfAvhoeGYsOzz8bhvXtTTwGggrUuWRL3PP546hkAZU3gAPgHJ48di3eefjqOdnWlngIAMbu1NRatWpV6BkDZEjgA/kZ/T0+8/dRTcaq/P/UUAPjd9HnzYslLL6WeAVCWBA6APzna1RVvLV8egydPpp4CAH8xZfbseOyFF6Jm9OjUUwDKisAB8Ac/dnTE+pUro1Qspp4CAP+osbk5nnjllRg1dmzqKQBlQ+AAuKDQ2xtvLF0apYGB1FMA4KKmzpkTT772WuoZAGXj+tQDAMrB8NBQvPfMM+IGANn4ft++2Pr666lnAJQNgQMgIjauXh3HurtTzwCA/2XXli3xdVtb6hkAZUHgACreZ+vXx8Hdu1PPAIBLsvnFF+OH775LPQMgOYEDqGhd+/fHF+++m3oGAFyW99esieFSKfUMgKQEDqBilYrF2Lh6deoZAHDZCr298fHLL6eeAZDUrwAAAP//7N3bj1X1Gcfhdw4cJg5EhmEUTzColWgtJUqUENqGRDE2GrCRpjZR419guDTolcbEEGNM9NKYGKMhDWLAilGieOBMrQcUcEaMgjIDDHOU4dy73rRpm87e+917ree5nKvP1V57vmuv3zJwAKX1l6eeitGBgewMAKiIz7dsic/efTc7AyCNgQMopU83b46DO3dmZwBARW187rkYPXkyOwMghYEDKJ2xwcF4+4UXsjMAoOLOnDoVb65dm50BkMLAAZTOG888E+NjY9kZAFAVB7Zvj31bt2ZnANScgQMola8//jgO7tiRnQEAVfXW8897qwpQOgYOoFTefvHF7AQAqLrRkyfj49dfz84AqCkDB1AaezZtisGjR7MzAKAmtq1bF6dGRrIzAGrGwAGUwrkzZ2LLSy9lZwBAzZwZH4/3X345OwOgZgwcQCns3LAhxgYHszMAoKZ2vPFGDB8/np0BUBMGDqAUPnrttewEAEixbd267ASAmjBwAIW3Z9Om+HloKDsDAFLs3rjRWRxAKRg4gML78NVXsxMAIM3Z06dj54YN2RkAVWfgAApt/yefxGBfX3YGAKTasX59dgJA1Rk4gELbvXFjdgIApPt5aCj2bd2anQFQVQYOoLCG+vvjm127sjMAoC7s2bQpOwGgqgwcQGHtevPN7AQAqBu9e/fGwJEj2RkAVWPgAArr03feyU4AgLryxfvvZycAVI2BAyikIwcOxOjAQHYGANSVfR9+mJ0AUDUGDqCQHKQGAP/qaE9PDPX3Z2cAVIWBAygkAwcA/Hufb9mSnQBQFQYOoHD6Dx2Kkz/9lJ0BAHXpwLZt2QkAVWHgAApn//bt2QkAULe+37cvxgYHszMAKs7AARSOO1MA8J/17N6dnQBQcQYOoFB+Hh6OH776KjsDAOragR07shMAKs7AARTKt3v3ZicAQN3r3bMnOwGg4gwcQKH0GDgA4L86NTISR3t7szMAKsrAARSKZ4oB4H/T66YAUDCt2QEAlTLU3x/Dx45lZ9S1aZ2dcdm110ZXd3d0dXfHrO7uaO/oyM4CqIjh/v7oP3Qo+np7o+/bb6OvpyfGR0ezs+rW919+GUtWrcrOAKgYAwdQGD8ePJidUJcmt7XF/KVLY8Hy5dE5Z052DkDVTO/qiuldXXHdbbf9828/7t8ff9+8Ob7Zvj0unD+fWFd/XDeBojFwAIVx5MCB7IS6Mq2zM2655564admymNzWlp0DkOKK+fPjivnzY/TBB+OzzZvji/fei1PDw9lZdWGovz/GR0djant7dgpARRg4gML40cARERFd3d1x64oV8YvFi6Op2VFLABER7R0dseSBB+K2+++Prz74IHavX++xxog4/PXXcd2iRdkZABVh4AAK4/D+/dkJqZpbWuJ3jzwSC5Yvz04BqFutkybFr+64I365bFl89Mor8be33oq4eDE7K83R3l4DB1AYBg6gEMYGB0t9kNyll18ed69eHZfNm5edAtAQmlta4rcPPxxzFy6Mvz77bIyPjWUnpeg7dCg7AaBi/HYZKISjvb3ZCWmuvvnm+NPTTxs3AP4PcxYsiD+vXRuz5s7NTklh4ACKxMABFEL/d99lJ6S4fvHiuG/Nmpg6bVp2CkDDmj5rVvzxySdLORQf7enJTgCoGAMHUAgnfvghO6Hm5i5cGHc/+mg0t7RkpwA0vElTp8Z9TzwRHVddlZ1Sc4N9fdkJABVh4AAK4fjhw9kJNdV5zTXx+9WrjRsAFTS1vT3+8Pjj0T5zZnZKTQ0cOZKdAFARBg6gEE6UaOBo7+iIlWvWxOS2tuwUgMJpnzkzVj72WLROnpydUjMnDBxAQRg4gEIY6u/PTqiZ3zz0ULR3dGRnABRW55w5cfuqVdkZNTN87Fh2AkBFGDiAhjd8/Hh2Qs3csGRJ3LBkSXYGQOHdeu+9pXmzSpmuo0CxGTiAhleaO09NTXHrihXZFQCl0NTcHItWrszOqInSXEeBwjNwAA1vdGAgO6Emrl20KLq6u7MzAErj+ttvj0tnz87OqLqxwcHsBICKMHAADW/05MnshJpYcOed2QkApdLc0hK/vuuu7IyqM3AARWHgABpeGQaOaZ2dMWfBguwMgNKZv3Rp4V/JPXLiRHYCQEUYOICGNz4ykp1QdfOXLo1oasrOACidtunTo/uWW7Izqu7M+Hh2AsCEGTiAhndqdDQ7oermLlyYnQBQWmX4DD49NpadADBhBg6g4Y0XfOBonTIlrrrxxuwMgNK6+qabshOqzsABFIGBA2h4Z0+fzk6oqhklOMEfoJ5dOnt2TJoyJTujqs6dOZOdADBhBg6g4Z0t+HPDHVdemZ0AUGpNTU2Ff13sWQMHUAAGDqDhnT97NjuhqqZcckl2AkDpXTJjRnZCVZ0/dy47AWDCDBxAwztX8C9lBg6AfC2TJmUnVNWF8+ezEwAmzMABNLyLFy5kJ1RVS2trdgJA6bUWfOCIixezCwAmzMABAAAl19Ts3wKg8fkkAxpeU1NTdgIANLTmlpbsBIAJM3AADc8jHAAwMa2TJ2cnAEyYgQNoeL6UAcDETGlry04AmDADB9DwLps3LzsBABrayMBAdgLAhBk4gIbXPmNGdgIANLRRAwdQAAYOAAAAoOEZOAAAAICGZ+AAAAAAGp6BAwAAAGh4Bg4AAACg4f0DAAD//+zdTWzcd5nA8WclVsYSiiVPtYjSBW3RLpeiVSu2ysqRnLgHswcsNbRCWygllWoOYTk07iERN6REbG1ACwlaW8IhKZe2WxRDtg4NHRfiyqLeliVtlaoQF9SGkvemcdxJsvEemv80ccYv8+b//Gc+H2kke2b8m8dODplvnhkLHAAAAEDmCRwAAABA5gkcADS1uzdujM5crqLLocnJsh/v3x99NDpzufiHT386zp07V/X8+Xw+Pn7LLTfMdt+XvhSFQmHF51T6M+jM5cqad3BoqOQZjw4OlnXOSmcr99zEocnJZc++e+PGss8aHBoq6/4rfYyIiEKhEP963303zPm3n/hE5PP5FZ8DAM1K4ACAGnnnnXdiZGQkIiJOnjwZw1c/rlQ+n48v339/zM3N3XDb+Ph4bHrwwbIiR70NDg3F9u3bS962Y8eOimPEUup1bqWGh4drErYWKhQK8dVNm+LAgQM33DY7OxtfeeABkQOAlidwAECN/OfwcJw6dar4eTVPdpeKG4lGihxLxY1EK0SOWoSthZaKGwmRAwAEDgBayNjYWJw+dWrFl3VdXSs++9rtjUSlT3YXxo3e3t7487FjxbmefOKJaG9vj4iVR47Fvsdy71PKwrixbdu2675+69atxdsqiRGLzVXNueu6uornjI2NFa/v7u4uXv/Tp54qa85ELbc4FsaN9vb2+K8nnyzO+Odjx6K3tzciRA4AEDgAoAau3d7YvHlz5K6+d0W5T3ZLxY3do6PR1tZWvE9PT0/s3bOn7MhRD6XixsCWLdfd55GBgaojRyn1OrdatdriKBU3Htu7NzZs2FC8T1tbW+weHRU5ACAEDgCo2rXbGzfddFM8MjAQDz30UESU/2T3P77//SXjRmJh5Jifn6/226jIcnEjUSpG1EK9zq1WLbY4XpieXjJuJBZGjitXrlT1uACQVQIHAFTp2u2N/v7+WLNmTXytv7/iLY7E5s2bS8aNRBI5+vr6Fg0hq2mxuJF4ZGCgLo9br3OrUev34rjzzjtLxo1EEjn6+voWDSEA0OwEDgCowsLtjf6rmxsdHR0Vb3GUo6enpyHiBu+7/fbbqw5blUoih7gBQKsSOACgCqW2NxK12OIgW9asWbMqYQsAuJHAAQAVWmx7I7FaWxytbnBoKO0RriNsAUA6BA4AqNBS2xsJT3brq9RvcUmbsAUA6RA4AKACy21vJDzZrZ+V/IratAhbALD6BA4AWkZfX1905nJLXg5NTq7orOGRkWW3NxKe7FZnsT+rRo0bEfUNW4cmJ5f9e3z3xo01ezwAyAqBAwAq8Pzzzxc/Xrt27ZL37ejoiNtuuy0i3n+y+7vDh+s6W6tptLiRELYAYHUJHABAZjVq3Ijw8iQAWG0fSnsAAFgtY2Njsa6rq+bn9vX11fxMPnD66kuBIt5/eUby816/fn3Dxo3E1/r7Y+Tqy5mGh4cXfa+Wcqzr6rruZ5K49mcDAK3IBgcAkBnrurqiu7s7IiImJiZicoXvmZIWWxwAsHoEDgAgU7Zcs7Ux9J3vpDjJyix8L45333035YkAoDkJHABQpbGxsTh96tSSl2TrgOplfYtjxBYHANSFwAEAZE6WtzgmJibSHQYAmpTAAQAZls/nY9ODD0ahUEh7lFWV5S2OeigUCrFz5866nQ8AWSBwAECD2rVr15LhIp/Px5fvvz/27dvXEJHj0cHBJW8fHBqq6eNleYujXNPT05HP50veVigU4qubNsWBAweqGQ8AMk/gAIAG8m9f/3q0t7dHRMT4+Pii4SKJG3NzcxERMT8/v6pzJrZu3Vr8eMeOHYtGjsGhodi+fXvx823btlX92M2+xfFPn/1s9Pb2RkTE7OxsfOWBB26IHOIGAHxA4ACABtLT0xN79+xZMnIsjBu9vb2xe3Q02traVn3eRwYGlo0cpeLGwDXbF9Vo5i2Otra22D06umjkEDcA4HoCBwA0mFKR42M33xyduVx05nLxhXvuaYi4kSgVOZJZO3O5usWNiMq3OA5NThbn6+vrK17/3HPPFa+/e+PGms2ZKHeLo1Tk+MI990RnLhcfu/nmYtxob2+PLQ8/XPN5ASBLBA4AaEALI0cpjRA3EgsjRym1jhuJZt7iiLgxcizU3t4ej+3dG93r19doQgDIJoEDABrUUpGjkeJGYqnIUa+4EfHBFkd3d3c8nIEtho6Ojujv7y/raxaLHEnc2LBhQy1HBIBM+qv5tN6VDKBGJvbsiWd37057jLpZe++98c9f/GLaYwC0tP/+7nfjtQZ/I9tq3PvNb8ZnenrSHgOgKjY4AAAAgMwTOAAAAIDMEzgAAACAzBM4AAAAgMwTOAAAAIDMEzgAAACAzBM4AAAAgMwTOAAAAIDMEzgAAACAzBM4ABrcxbm5tEcAaHmFCxfSHgGAZQgcAA3u8sWLaY8A0PIKs7NpjwDAMgQOgAZ37sSJtEcAaHnnjh9PewQAliFwADS4EzMzaY8A0NIKFy7E7NmzaY8BwDIEDoAGN3v2rP85BEiR0AyQDQIHQAa8+eqraY8A0LLefOWVtEcAYAUEDoAM+NPhw2mPANCyZl56Ke0RAFgBgQMgA16fmor3zp9PewyAlnPm2LF4+/e/T3sMAFZA4ADIgMuFQrx88GDaYwC0nOl9+yLm59MeA4AVEDgAMuLF/fvj8sWLaY8B0DJmz5yJI7/+ddpjALBCAgdARsyeOROHn3km7TEAWsb0vn3CMkCGCBwAGTL1xBPeiwNgFZx444343/HxtMcAoAwCB0CGvHf+fDw7MpL2GABNbX5+Pg784Afxf5cvpz0KAGUQOAAy5rXJyXhp//60xwBoWr/68Y/jxBtvpD0GAGUSOAAyaGJ0NI5OT6c9BkDT+e3TT8eLP/952mMAUAGBAyCj9g8NxVuvvpr2GABN45Vnn42JH/0o7TEAqJDAAZBRly9dip9u3x5/Onw47VEAMu+VfD5+sWtXzM/Ppz0KABUSOAAy7NJ778VT3/pW/M/YWNqjAGTS/JUr8as9e+IXO3emPQoAVfpQ2gMAUJ3kH+dvHTkS//KNb8Rff/jDaY8EkAnvnjwZT3/ve/HWkSNpjwJADdjgAGgSf/jNb+KxgYH4wwsvpD0KQMM7fPBgPLZli7gB0ERscAA0kbNvvx1j3/525G65Je74/OfjtrvuSnskgIZRuHAhXv7lL+PFn/0szp8+nfY4ANSYwAHQhE69+WY888MfxqGf/CT+8XOfi8/cdVd8JJdLeyyAVJw5dix+Oz4eLx88GJcvXkx7HADqROAAaGJz587F1OOPx9Tjj8ffr10bf3fHHfHRT30qbvrkJ9MeDaBuLl+6FCdmZuL4zEy8NjnpV2oDtAiBA6BFvD41Fa9PTRU//+itt8bf3HprfKSzM8WpAGrnnePH4/jMTJz84x/THgWAFAgcAC3qL0ePxl+OHk17DAAAqIn/BwAA///s3V1sVGUex/HfTBkOM4OdgWkFpIXytguU8tKWElktpRpxgS2CLsirggpE2aQhemFisl6tVxIT4xtcQEB8ZVE0cdXVLSYadrVkgcUoGyAhrgpIoaO0dBRm9kJLoFBse07nmWfm+7mkPf/zy5OTdM6P58zhLSoAAAAAAMB6FBwAAAAAAMB6FBwAAAAAAMB6FBwAAAAAAMB6FBwAAAAAAMB6FBwAAAAAAMB6FBwAAAAAAMB6FBwAAAAAAMB6FBwAAAAAAMB6FBwAAAAAAMB6FBwAAAAAAMB6FBwAAAAAAMB6FBwAAAAAAMB6FBwAAAAAAMB6FBwAAAAAAMB6FBwAAAAAAMB6FBwAAAAAAMB6FBwAAAAAAMB6FBwAAAAAAMB6FBwAAAAAAMB6FBwAAAAAAMB6FBwAAAAAAMB6FBwAAAAAAMB6FBwAAAAAAMB6FBwAAAAAAMB6FBwAAAAAAMB6FBwAAAAAAMB6FBwAAAAAAMB6FBwAAAAAAMB6FBwAAAAAAMB6FBwAAAAAAMB6fUwHAAB4p7CkRJFBgxSKRBTMz5ffb3+Pff7HH9Uaj+vs6dM6efSozv3wg+lIFxWWlCg6ePDF9fb5fKYjufZjW5ta43G1/LLebS0tpiNdFHAcDRo9Wv0HDlQoEpETCpmO5FpKUtvZs2ptbtb3J0/q+OHDpiNdpn8spoJhwy6ueV4f+z86Ji9cUOv336u1uVlNX32l5uPHTUcCAHjE/r9SAJDjokOGqGrBAo0oL1coEjEdp9edOHxY/92zR427dhk5f2FJiSrnzdOwiRNzYr2/OXRIhz75RPveecdYhvEzZmh8TY2Ky8qMZUiXREuLjh04oP3vvqv/ff65kQxOKKSKujqNrqpSbNgwIxnSqfn4cR1tbFTjrl1qOXPGdBwAgAu+VCqVMh0CANzYvXWr/rFli+kYaZcXCKhy3jxNu/NO5QUCpuOkXfO33+r9Z5/V1198kZbzBRxH0+66SxV1dfLn5aXlnJnkxJEj+nDjRp04ciRt54wOGaLbHnxQQ8eNS9s5M0Yqpf98+KE+2b49rbuWfnPjjapZtUrhAQPSds5MkWht1cfbtunABx9IOfjx+I+PPaay2lrTMQDAFQoOANbLxYIjVlysOevXK1ZcbDqKWamU9r79tj7evl3JCxd67TSDRo7U7PXrFR08uNfOYYNUMql/7dihf+7YoVQy2avnmjRrlqrvvVd9crC8u1Rrc7PeffppHdu/v1fP0y8cVs1992lcdXWvnscGx/bv19+fe04/nDplOkpaUXAAyAYUHACsl2sFBzd+Vzpx9Kje2bDB+2fpfT5V1tXpd0uW5OSujc58/eWX+ttTT/XKDWC/cFi3PfSQRlVVeT7bWr1c5A0dO1a/r6/XdQUFns+2VVtLi95/5hkd+fRT01HShoIDQDaw/9vnACCHDCwqUvWKFZQbHQwaOVLV99zj/dwRIyg3rmLo2LGafvfdvTK7cv58yo2OfD5V1NVpRHm556P7OI5uXbuWcqODfuGwbl29WqFo1HQUAEA3UHAAgCWccFh/ePhh9XEc01Ey0qipU1U+d65n85xwWHMfeYRyoxPja2pUOnOmpzNHVlZq6h13eDozm8xat07511/v6cxbHnhAA4uKPJ2ZLULRqGbX12fF25EAIFdQcACAJabOn8+NyK+4aelS5RcWejNr2TLPZmWrmlWrFMzP92RWXiCg2vvv92RWtnJ+2VXgleGTJml8TY1n87JR8YQJrBEAWISCAwAscF1BgcrnzDEdI+PlBQK6adky13NiRUUqu+UWDxJlt77BoKYvXuzJrPK5c3lMoguGT56skilTXM/x+f2asXKlB4my383Ll6tvMGg6BgCgCyg4AMACk26/PSdfBdsTv50+Xf1jMVczJs+ZI5+fP5FdUVpTIycUcjfE59OU2bO9CZQDvCg7h44bpxg7wrokmJ+vsTffbDoGAKAL+PQGABYYzZcudp3Pp5EVFa6OH1VZ6V2eLJcXCLjeUTBkzBiFBwzwKFH2KyotdV0qebELJJewXgBgBwoOAMhw+YWFGnDDDaZjWKVk8uQeH1tQXMzNdjcNd7He0s9fLoquywsEVFRa6mrGqKlTPUqTG9yuNwAgPSg4ACDD8cWi3edmzSKDB3uYJDe4fdQhVlzsUZLc4eYa9+flKcp13i1OKOT5G2wAAN6j4ACADBeORk1HsE7IxZpFuInpNjfrLXGN94SbNesfi/H64x7grUoAkPkoOAAgw/GhuvucUEhOONyjY1nv7us/cKCrG2a3BUkucrObgEKpZ1g3AMh8FBwAkOFSqZTpCHbq4bqd/+knj4PkhuSFCz0+lmu8+1LJZI+PTbo4FgCATEbBAQAAAAAArEfBAQAAAAAArEfBAQAAAAAArEfBAQAAAAAArEfBAQAAAAAArEfBAQAAAAAArEfBAQAAAAAArNfHdAAAgF12796tnW+8oWlVVVq6dKnpOFkrkUjoL088oTNnzlz8t2C/fnr00UcVjUYNJste7df2pWpmzNCCBQsMJcot8Xhcf378cSWTSf1p3TqNGTPGdCQAgGUoOAAAXdbQ0KBly5fr3LlzkkTB0UsSiYTuXblS77333hU/+/e+fXrt1VcpOTzW8dpu98orr6gtkdCSxYsNJcsdL2zcqK1bt0qSFi5cSMEBAOg2HlEBAHRJZzeA8Na1yg1Jamxs1MJFi9Tc3JzmZNnrWtf2+fPnVV9fr5deftlAstwRj8e1adMm0zEAAJaj4AAA/CrKjfToWG7MmjVL337zjU43NenUd99pxYoVkig5vHTptR0MBvXXHTt0uqlJp5ua1NDQoMKCAkqONHhh40Y1NTWZjgEAsBwFBwDgmjreAKL3rFm79rJyY8vmzXIcR5Lk9/u14cknryg52trajOW13d69ey+7tl/ctk0zZ868+PNJEyfqtddfv6zk2Llzp8HE2YndGwAAr1BwAAA61bHceHHbNtORstqK5csVDAavKDfatZccdXV1kn4uOU6ePGkialaYMGGCqqurr1putGsvOaSfH1fZ/dFH6Y6Z9di9AQDwCl8yCgC4qng8rtVr1nT6v9vwXm1trXa9+abKysquKDfa+f1+lZaW6q233kpzuuzjOI62bN6sgwcPqqKiotPfmzRxYhpT5ZZLd28UFBTo1KlThhMBAGzGDg4AwFVFIhG98PzzisVilBtpVFlZ2Wm5Ae85jnPNcgO9q333Rt++fXXfqlWm4wAALMcODgBAp2pra9X42WeKRCKmo+AXiURCe/bsMR0jpzQ0NJiOkJUu3b2xaNEiDRs+3HAiAIDt/g8AAP//7N1fbFRVAsfxX0vTtbpt+beKuFohwZAQ6BaTbdSNqA++rpqIkBDikzEhwc3CJrAhbngRjLLgPx54AByRthoxhYIBooArlv6hBVtI6P8OhRbaKf07Zcowsw9su4IdpcydOffc+X6emN7ec3+5TJrOr+eewwwOAMCvotxwj7FdVo4fPy7p1kKks2bNMhvK48bWoZGkrKwsvfLyy4YTecfPZ2/87a23TMcBAHgAMzgAALDARFvI7t61S5mZmYaTeUc4HNbly5fHX9fV1+uNN964bR2a5557zlxAD7lz9sacOXN0qqLCcCoAgO0oOAAAcLlY5QZrdTjr8uXL+lNBwS++np2drd27drEOjYOYvQEASAQeUQEAwMUoN8zLy8tTwQTFB+7NRLM3AABwAjM4AABwKcqN5MrNzdX69evHX587d0779+9XfX29lr72mr4oKdHUqVMNJvQGZm8AABKFggMAABei3Ei+3Nxc/WPt2vHXkUhEf1+zRj6fT9XV1ZQcDmD2BgAgkXhEBQAAl6HccIf09HT9e8sWrVy5UpJUXV2tTZs2GU5lN2ZvAAASiRkcAAC4COWGu4yVHD6fT5I0cv264UT2GhgYGJ+9kZaWpqVLl952fHBoaPzfb775prLuu0+zZ89WaWlpUnMCAOxFwQEAgEtQbpgRDoeVkRH7V6L0dCa8OuGnujoFAgFJt97rzS0tMb/359v1AgBwtyg4AABwCcqN5NtbVCSfz6fioqKYa2uEQqEkp/Km3JwcLVmyJObx7u5unT9/XpJUUFCgnJwcPfTQQ8mKBwDwAAoOAABcYqzcKCwspNxIgvLycq1evVqRSCTmAqJjs2rGTJs2LdkxPWPhwoX6et++mMeLiou1atUqSdLGjRv1l2eeSVY0AIBHMOcSAACXmTdvHuVGEhQWFmrFihWSNL5LSl9f3/jxiR4Z+ufPtpEFAADuwgwOAEBMp06d0t6iogmPVVZWavUduyB8+MEHyYjleRPd21j+9fbbmjFjRoITedPYAqKSxreC/etLLyk/P1+S1NjYqIqKCkk8MgQAgA0oOAAAMbW2tWnPnj0THmtoaFBDQ8NtX6PgcMZE9zaWtWvWUHDE4c6So66uTnV1dbd9D+UGAAB24BEVAACQ0sZKjpUrV/7iGOUGAAD2YAYHACCm5cuWafmyZaZjpIze/22hieRLT0/Xtq1btW3rVtNRUhY/bwAA8WIGBwAAAAAAsB4FBwAAAAAAsB4FBwAAAAAAsB4FBwAAAAAAsB4FBwAAAAAAsB4FBwAAAAAAsB4FBwAAAAAAsB4FBwAAAAAAsB4FBwAAAAAAsB4FBwC43GBPj+kI1gkFgwoFg/d07sDVqw6n8b7+K1fiOp/3+OTFc8/6OjsdTJI6ei9dMh0BAPAbKDgAwOX6+cA9afGUFMN9fQ4mSQ3x3jNKpckb6O6+53NDw8O6eeOGg2lSQ5CfDQDgehQcAOBy3a2tUjRqOoZVutva7vncK83N3O9J6mxoiOv8eP6/UtXV1ta4zueeT87wtWsa7u83HQMA8BsoOADA5ULBoLqamkzHsEpbbe09nzsUCKi7vd3BNN4Xz/124vxUMzoyos4LF+Iao6my0qE0qaG5upriEwAsQMEBABZoKC83HcEa4dFRtdbUxDVGS3W1Q2m87/rQkDrOnYtrjN5LlxTw+x1K5H3NVVW6GQ7HNUbL6dMOpUkNrdwvALACBQcAWKDu6FGNDAyYjmGF2kOHNDoyYnyMVFFdWurIOBVffeXIOF4XjURUtW9f3OME/H5dOHnSgUTe19XYGHdpCgBIDgoOALDA6MiIfiwuNh3D9UYGBlTpwAflkYEBlZeUOJDI2wIdHaopK3NkrAsnT8a9lkcqOPPNNwp0dDgy1g979rDY6F04tnOnopGI6RgAgLtAwQEAlvjpyBE1V1WZjuFa0WhUR7Zvd2zmRe3Bg7pYX+/IWF4UuXlThz/80NEPyEe3b1c4FHJsPK/p7ehQ+RdfODbeQHe3fvj8c8fG86LagwfV1dhoOgYA4C5RcACARQ5//DFbasZQ8eWXjq6dEY1GdWjbNraGjOE/n32mKy0tjo4Z6OjQtzt2ODqmV4RDIR14/32FhocdHbemrIziNIYrLS363uczHQMAMAkUHABgkdDwsEo3b9ZQb6/pKK5y7tgxR/+yPSbY16fSzZs1Mjjo+Ng2qz10yLFHU+50/sQJff/ppwkZ21bhUEhlW7ao16FHU+50+KOP1H7mTELGttXV1lbtf/ddRW7eNB0FADAJFBwAYJkev19F69Y5/tdzK0WjOrl3r4588knCLtHV1KSidescW/fAZtFIRN/u2KHjO3cm9DqnDxzQgffe43EVSUO9vSrZsCGhi1yGgkF9/c47On/iRMKuYZPmqiqVbNigoUDAdBQAwCSlRaNs6g3Absd9Pn23e7fpGEk3JSNDC55/XoWvvqrfT59uOk7StdbU6MeiIl1tbU3K9TIyM7XoxRf151deUVZOTlKu6RrRqBorKlReXJzUoid75kw9s3y55j/7rNLS0pJ2XTe4cf26asrKdPrAAccfS/k1f1ywQEtef10PzpmTtGu6RV9np34sKbm1u0wK/nr86oYNWvjCC6ZjAEBcKDgAWC9VC44xGZmZeuLppzVn8WI9lp+v+x54wHSkhOnx+9VWW6vGU6eMLfyXmZX1//u9aJEys7KM5EiGrqYmtdXWqqmiQt1tbcZyTJs9W0889ZQeLyjQ7PnzjeVItBuhkC7W1996j5eXK9jfbyxLXn6+5j75pB5fvFhTZ80yliPRhnp71VZbq5bTp9VcWWk6jlEUHAC8gIIDgPVSveC409SHH9Yf8vI0/ZFHlD5liuk4cQv296vH71dPe7tCwaDpOL/gtfs9fO3arfvt9zu2I42TMjIzNTMvTzMfe0zZM2aYjhO3SCSivq4u9fj9Cvj9puNMKCs7Ww/OnasZjz6q391/v+k4cbsxOqrAxYvqaW/XYE+P6TiuQcEBwAsyTAcAADirr7NTfZ2dpmOkDO53coVHR9XV2MjWnUk0Mjio9rNn1X72rOkoAAD8KhYZBQAAAAAA1qPgAAAAAAAA1qPgAAAAAAAA1qPgAAAAAAAA1qPgAAAAAAAA1qPgAAAAAAAA1qPgAAAAAAAA1qPgAAAAAAAA1qPgAAAAAAAA1qPgAAAAAAAA1qPgAAAAAAAA1qPgAAAAAAAA1qPgAAAAAAAA1qPgAAAAAAAA1qPgAAAAAAAA1qPgAAAAAAAA1qPgAAAAAAAA1qPgAAAAAAAA1qPgAAAAAAAA1qPgAAAAAAAA1qPgAAAAAAAA1qPgAAAAAAAA1qPgAAAAAAAA1qPgAAAAAAAA1vsvAAAA///s3X1QVOehx/HfLuIKWJbXqg1LEOO9voEv+DLmRsTolDS+pLFVFJRETTtNzEwompnomEnndq6d3gkmMbE0nd4aG3N7xQyZ1N7EtI12bDOmUZpIoy0GTBwuvi0qGEFRYO8fhh1BFJY9u2fP7vcz44zD4TznN487K+fHc/ah4AAAAAAAAJZHwQEAAAAAACxvkNkBAADGSc3IkHPYMMU6nYqJj5fdbv0eu/3aNbU2N+vyhQs6d+KErnz5pdmRvFIzMpQwfLh3vm02m9mR/Hbt6lW1Njer5av5vtrSYnYkr2iHQ8PuuUdDk5IU63TKERtrdiS/eSRdvXxZrU1NunTunM7U1podqZuhyclKSU/3znnUIOv/6NjZ0aHWS5fU2tSk8/X1ajpzxuxIAACDWP9/KQCIcAkjRmj64sUaOWWKYp1Os+ME3NnaWh0/eFCH337blOunZmRo6kMPKT07OyLm+1RNjWo++ECfvPOOaRnGzZ6tcXl5cmVlmZYhWNpaWnSyulpH9u7V/x09akoGR2yschYt0j3Tpys5Pd2UDMHUdOaMThw+rMNvv62WixfNjgMA8IPN4/F4zA4BAP74069/rX2vvWZ2jKCLio7W1Ice0ozvfEdR0dFmxwm6ptOn9fuf/UwN//hHUK4X7XBoxne/q5xFi2SPigrKNUPJ2bo6vf+LX+hsXV3QrpkwYoS++cQTumvs2KBdM2R4PPr7++/rgzfeCOqqpX+ZOVN5q1crLjExaNcMFW2trfrL66+r+o9/lCLwx+MlmzYp6/77zY4BAH6h4ABgeZFYcCS7XJpfWqpkl8vsKObyeFS1Z4/+8sYb6uzoCNhlhmVm6sHSUiUMHx6wa1iBp7NTf33zTX345pvydHYG9FoT8/OV++ijGhSB5d3NWpuatPfll3XyyJGAXmdIXJzy1qzR2NzcgF7HCk4eOaI/lJfry8ZGs6MEFQUHgHBAwQHA8iKt4ODG71ZnT5zQO1u2GP8svc2mqYsW6d8KCyNy1cbtNPzzn3r3xRcDcgM4JC5O31y7VqOmTzd8bMsKcJF315gx+lZJib6WkmL42FZ1taVFv9+2TXUffWR2lKCh4AAQDqz/6XMAEEGS0tKUW1xMudHDsMxM5T7yiPHjjhxJudGLu8aM0b3LlgVk7KkPP0y50ZPNppxFizRyyhTDhx7kcGjeD35AudHDkLg4zfv+9xWbkGB2FACADyg4AMAiHHFxWrh+vQY5HGZHCUmjpk3TlAULDBvPERenBU8/TblxG+Py8jR+zhxDx8ycOlXTvv1tQ8cMJ/lPPqn4r3/d0DHnfu97SkpLM3TMcBGbkKAHS0rCYnckAIgUFBwAYBHTHn6YG5E+3FdUpPjUVGPGWrHCsLHCVd7q1YqJjzdkrKjoaN3/2GOGjBWuHF+tKjDK3RMnalxenmHjhSPXhAnMEQBYCAUHAFjA11JSNGX+fLNjhLyo6Gjdt2KF3+Mkp6Upa+5cAxKFt8ExMbp3+XJDxpqyYAGPSfTD3ZMmKWPyZL/Hsdntmr1qlQGJwt+slSs1OCbG7BgAgH6g4AAAC5j4wAMRuRXsQPzrvfdqaHKyX2NMmj9fNjv/RfbH+Lw8OWJj/RvEZtPkBx80JlAEMKLsvGvsWCWzIqxfYuLjNWbWLLNjAAD6gZ/eAMAC7uFDF/vPZlNmTo5f54+aOtW4PGEuKjra7xUFI0aPVlxiokGJwl/a+PF+l0pGrAKJJMwXAFgDBQcAhLj41FQlfuMbZsewlIxJkwZ8borLxc22j+72Y76lGx8uiv6Lio5W2vjxfo0xato0g9JEBn/nGwAQHBQcABDi+GBR3/kzZ87hww1MEhn8fdQh2eUyKEnk8Oc1bo+KUgKvc584YmMN38EGAGA8Cg4ACHFxCQlmR7CcWD/mzMlNjM/8mW+J1/hA+DNnQ5OT2f54ANhVCQBCHwUHAIQ4fqj2nSM2Vo64uAGdy3z7bmhSkl83zP4WJJHIn9UEFEoDw7wBQOij4ACAEOfxeMyOYE0DnLf269cNDhIZOjs6Bnwur3HfeTo7B3xupx/nAgAQyig4AAAAAACA5VFwAAAAAAAAy6PgAAAAAAAAlkfBAQAAAAAALI+CAwAAAAAAWN4gswMAAELTZ599ppdfecWnc5KSkvSj554LUKLI0tbWps0/+YkuXrzo/VrMkCHasGGDEtiu0hDvvPuu9u7d69M5M6ZPV1FRUYASRZb6+npteeEFddy0A096errWlZbKZrOZmAwAYFUUHACAXp09d047d+706ZxRmZkUHAZoa2vTo6tW6b333rvl2MeffKKKXbsoOQxw9OhRn1/jkig4DFBfX6/Fixer7sSJW441NDRoS1kZJQcAwGc8ogIAQAi5U7khSYcPH9bSggI1NTUFORkkKSsry+wIlnenckOSduzYodJ16+TxeIKcDABgdRQcAIA+bdu2TRfOn+/zz6FDh8yOamk9y438/HydPnVKF86fV6PbreLiYkmUHEZ5ev36fr2uFy5cKElyuVwqXrnS5NTW1rPc2Lhxo3ee62prlZOTI4mSAwAwMBQcAACEiJ7lxmvbt8vhcEiS7Ha7tpSVdSs5li1frvb2dtPyRoLq6mrt2bNHkrR27Vrvvwd853a7byk31q9b5z2emJioil27upUczzzzjClZAQDWRMEBAECI6Co3ZsyY0a3c6HJzyWG321VcXKxBg/g4rUAq27JF0o3VG498VS5hYGqOH/eWG48//ni3cqNLV8kxKjNTkrRv376gZgQAWBsFBwAAIWb06NG3XSnQVXLs+e1vVbh8eZCTRRZWbwTOhAkTbnssMTFRaS5XENMAAMIFBQcAABZjt9s1c+ZMs2OEPVZvAABgLaxrBQD0S3V1tf79xz9WR0eH92vp6en6z5/+lN9sI+yweiOw/nzggJYVFPS6FWx9fb1qa2tNSAUAsDoKDgBAnz799FP96Lnn5G5svOWY2+3W9l/9ihtAg9XX12vNY4/p4oUL3q8NiYnRtldeUXZ2tonJIgOrN4yXNWGCcnJyVFVVpf/ZtUuOIUO0paysW8nRtctKQ0ODJGkZj2EBAHxAwQEA6FN5ebmkG49GjMzIkCS1tLbqzJkz2rt3r1atXk3JYaBTp051223iZkuWLtXuigpKjgBi9UZgOJ1OVezapaUFBaqqqtKOHTskST8sKZEkNTU1ac2aNd12WVlXWmpaXgCA9fAZHACAfrHb7dq6dasOHTqkQ4cO6eO//U35+fmS5C052traTE4ZHvbt2+e9yZs5c6Zmz56t2bm5stvtcrvdWrJ0qaqrq01OGb5YvRE4vW0FO2nyZE2aPFl5c+Z4X/ebNm3qdZcVAADuhIIDANCnrnLj5l07HA6HXtu+vVvJ8cTatWZFDEsbN27U//7ud3qrslJvvfWWXnrpJUqOAGP1RuAlJiYqd9as2x4fOnSo5s2dG8REAIBwwSMqAIBepbtc2rBhg6QbWzp+64EHbvmerpJj7rx5OnbsmKqPHAl2zLC1cePGW36DXVRYKEl66qmnvCXHXz/8UAkJCWZEDEus3gi858vK9MKLL0qSRmVmamlBgaQbj6i8+uqrunz5Mo9iAQAGhIIDANCr9PR0Pb1+fZ/f53A4lJqaGoREkWPhwoW3XZ5fVFioY8eOqby8XG63W5cuXaLgMAirNwLv+bIybd68WdKNcqOyslIul8t7fNy4cd0KPEoOAIAveEQFAIAQ43Q673icQiMwWL0RWFVVVXcsN6QbBd7Nj2KtffJJM6ICACyKggMAAEQ8Vm8E3pWrV71//2Fp6S3lRpeiwkLNuu8+SdLVK1eCkg0AEB4oOAAAd9Te3m52BCDgWL0RXDabra9vCE4QAEBYoeAAANxWdXW1ZuXm9rlbx7Vr14KUKDL0NZ9tN/0mHP5j9UbwXe/jNc57CgBgICg4AAC9am5u1tKCAtXU1NxxS9Lny8p08OBBSVJiUlIwI4ad1JQUSVJlZaX++ze/6fV79u/fr/Kf/1ySFBMTo5jY2KDlC1es3ggOZ3y87PYbP3r+x+bNvKcAAAxHwQEA6JXT6dSzzz7r/bC/3kqOnjsi/Ncvf2lG1LBRsXu3UlNS1N7erpKSkltKjv3792vFypW6cuWKYmJitPP1172lCAaG1RvBk5WV1e0DRHlPAQAYjW1iAQC3VVRYKEndtm3Mz8+XdGOFR9eN4e12RIBvJmZnq2L3bi1dskTuxkaVlJTowIEDGjx4sDwejyorK7uVG3PmzDE7suWxeiO4eE8BAAQSBQcA4I563pDs3Lmz23FuRIzVs+SoqKjodpxywzis3jAH7ykAgEDhERUAQJ+KCgu9S8tvxo1IYHSVHD0fP6HcMFZiYqKKioqUkZHB6o0g4z0FABAIrOAAAPRLUWGh9zevCLyJ2dmqqakxO0ZYc7lcennrVrNjRCzeUwAARmMFBwAAAAAAsDwKDgAAAAAAYHkUHAAAAAAAwPIoOAAAAAAAgOVRcAAAAAAAAMuj4AAAAAAAAJZHwQEAAAAAACyPggMAAAAAAFgeBQcAAAAAALA8Cg4AAAAAAGB5FBwAAAAAAMDyKDgAIMR92dhodgTLaWttVVtr64DOvXTunMFpwl/z2bN+nc9r3Hf+zFnT6dMGJokcFxoazI4AAOgDBQcAhLhmbrh95k9J0dLUZGCSyODvnFEq+e6S2z3gc9taWtRx/bqBaSJDK+8NABDyKDgAIMS5P/9c8njMjmEp7i++GPC5Z+vqmG8fnT5+3K/z/fn3ilTnPv/cr/OZc9+0XLyoluZms2MAAPpAwQEAIa6ttVVnamvNjmEpX3z88YDPvXz+vNwnTxqYJvz5M99GnB9prl25otM1NX6NUfvRRwaliQx1hw9TfAKABfw/AAAA///s3VtwlOUdx/Hf5rxZEhLCIZiQkIiAhZhJQqGAUKUVFVBbHHqYDo7T6YW2ZahAawa58MrRUdtOW7hwHAu0HtBpOxSkI44oreEUSAC1jpDjJhkiJDEnkmwg2V5YbUXAJO+7++yz+/1cksn/+c2TsJP3t/s+LwUHAFjgzOHDpiNY4/LgoOqrqhzNqDt+3KU00W+gt1fNH3zgaEZHS4va/X6XEkW/2spKDV2+7GhG3YkTLqWJDfXsFwBYgYIDACzw3ptvqr+723QMK1Tv26fB/n7jM2LF8d27XZlz9C9/cWVOtAsOD6vyr391PKfd79dHFRUuJIp+rWfPOi5NAQDhQcEBABYY7O/XoVdeMR0j4vV3d+uYCxfK/d3dOrxrlwuJolt7c7Oq9u51ZdZHFRWOz/KIBSf/8Q+1Nze7MuvdP/+Zw0ZH4O0XXlBweNh0DADACFBwAIAlTu/fr9rKStMxIlYwGNT+bdtc++RF9euvq+n9912ZFY2Gh4b0xu9+5+oF8pvbtulyIODavGjT0dysw6++6tq87gsX9O6LL7o2LxpVv/66Ws+eNR0DADBCFBwAYJE3/vAHHql5DUdfe83VszOCwaD2/fa3PBryGv71pz/p47o6V2e2Nzfrreeec3VmtLgcCGjPM88ocPGiq3Or9u6lOL2Gj+vq9M+dO03HAACMAgUHAFgkcPGidj/5pHo7OkxHiSgfvP22q+9sf6avs1O7n3xS/T09rs+2WfW+fa7dmnKlfx88qH/u2BGS2ba6HAho77PPqsOlW1Ou9Mbvf6/GkydDMttW5+vr9fenntLw0JDpKACAUaDgAADLtPn9erm83PV3z60UDKripZe0f+vWkC3RWlOjl8vLXTv3wGbB4WG99dxzeueFF0K6zok9e7Tn6ae5XUVSb0eHdm3ZEtJDLgN9ffrbE0/o3wcPhmwNm9RWVmrXli3qbW83HQUAMEqeYJCHegOw2zs7d+rA9u2mY4RdfEKC5tx+uxasWaNxEyaYjhN29VVVOvTyyzpfXx+W9RKSknTL8uWav3q1vOnpYVkzYgSDOnv0qA6/8kpYi560iRO1+Ic/1OylS+XxeMK2biS4NDCgqr17dWLPHtdvS7me3Dlz9M0HH9TkgoKwrRkpOs+d06Fduz59ukwM/nm8ZssWFS1bZjoGADhCwQHAerFacHwmISlJMxctUkFpqfKKi5Xi85mOFDJtfr8aqqt19sgRYwf/JXm9/9vvW25RktdrJEc4tNbUqKG6WjVHj+pCQ4OxHJk33KCZCxdqekmJbpg921iOULsUCKjp/fc//R0/fFh9XV3GsuQXF6uwrEzTS0uVkZ1tLEeo9XZ0qKG6WnUnTqj22DHTcYyi4AAQDSg4AFgv1guOK2VMnapJ+fmakJOjuPh403Ec6+vqUpvfr7bGRgX6+kzH+ZJo2++Ln3zy6X77/a49kcZNCUlJmpifr4l5eUrLyjIdx7Hh4WF1traqze9Xu99vOs5VedPSNLmwUFnTpik5NdV0HMcuDQ6qvalJbY2N6mlrMx0nYlBwAIgGCaYDAADc1XnunDrPnTMdI2aw3+F1eXBQrWfP8ujOMOrv6VHjqVNqPHXKdBQAAK6LQ0YBAAAAAID1KDgAAAAAAID1KDgAAAAAAID1KDgAAAAAAID1KDgAAAAAAID1KDgAAAAAAID1KDgAAAAAAID1KDgAAAAAAID1KDgAAAAAAID1KDgAAAAAAID1KDgAAAAAAID1KDgAAAAAAID1KDgAAAAAAID1KDgAAAAAAID1KDgAAAAAAID1KDgAAAAAAID1KDgAAAAAAID1KDgAAAAAAID1KDgAAAAAAID1KDgAAAAAAID1KDgAAAAAAID1KDgAAAAAAID1KDgAAAAAAID1EkwHAAC4K2XcOKWOHy9vero8cfb32JcHB9XX1aXu8+dNR7mqlLQ0+caPV0p6ujwej+k4jl0aGFBfV5d62tpMR7mmcRMmKHX8eCWlppqO4lwwqIHeXvV1damvq8t0mqtKSEzUuKwsedPTFZ+YaDqOY8NDQ+rv7lZfZ6cCfX2m4wAAXETBAQBR4Gu33aaC0lLlFRcrxeczHSdk2vx+NVRV6cyRI/q4psZIhsSUFM1avFj5xcVRv9/n6+pUX12tM4cOqa2x0ViOjOxszbr1Vk0vKdENs2YZyxFqlwIBNb33nhr+u+f9PT3GsuQVFenG+fM1vaREGdnZxnKEWm9Hhxqqq1V3/LhqKytNxwEAOOQJBoNB0yEAwIl3du7Uge3bTccwIr+4WMt+8hNlTJ1qOkp4BYN67623VPHii2G9CMwvLta3H3pI6ZMmhW3NSBAMBnVy3z5VvPSSLgUCYVs3PjFR8+67Twvuvz8qPjkwGv09PTq4fbs+PHgwrOumT5qkbz/0kPKLi8O6biT4uLZW+7duVZvfbzqKEWu2bFHRsmWmYwCAIxQcAKwXiwWHNy1Nt/34x5q9ZInpKEaF6yLQl5mppQ88EPP73X3hgt754x9Ve+xYyNfKuflmLf/pT2OvvLtC46lTOvD88+o8dy6k68TFx6tk5Uot/P73lZicHNK1Itnw0JCO796tI6+9pqFLl0zHCSsKDgDRIP7xxx9/3HQIAHCi4dQp1Z88aTpG2EwpLNS95eXKKyoyHcW4xORkzViwQL6MDDWdPq3h4WHX15hSWKjvPPaYcufMcX22bZJ9Ps1cuFAej0ctH34oheI9Eo9H8+67T3etWydverr78y2TkZ2tWYsWqbO1VZ+0tIRkjRSfT3evX6+SFSsUnxDbdy974uKUc/PNyp07V/7TpzUYQ2d0zFm6VFMKCkzHAABH7D99DgBiSLLPp1W//KWypk0zHSWi3LJ8ub7+3e+6Pjc1I0Pf2bw5qs8gGC1PXJy+8b3vqWTFipDMLywr05K1axUXHx+S+TZKzcjQivXrlZWbG5L5d65bpxvnzw/JbFvlzJ6tezZt4vcQACxDwQEAFrlr3bqYO/9hpBasWaNpc+e6Ns/j8WjlI48oNSPDtZnRZMnatZoyY4arMyfk5uqudetcnRktEpKTtXLTJiW4fPtI6apVKpw3z9WZ0WLKjBla+sADpmMAAEaBggMALDHn9tu5ELkOj8ejlRs2KMnrdWVe0R13cFvKdcTFx+vOn//c1cM/7/zZz5QcxU+lcSorN1fffPBB1+alTZyoW3/0I9fmRaOSlSs1deZM0zEAACNEwQEAFkjyerVk7VrTMSKeNz1d8++/35U5i37wAxcSRbes3FyVrlrlyqxZixcr+6abXJkVzYq+9S3XblVZsnZtzD2dZizcLJUAAKFFwQEAFii64w4OXByhkhUrlJya6ngG+z0y8+6915U5C1wopmKBJy5OX1+92vGcrLw8zVq82IVE0W/qzJkqKCszHQMAMAIUHABggZkLF5qOYI2EpCRNLylxNINbgUYuJS3N8a08E3JylJWX51Ki6Fc4b57jT14UcsE+KrwmAIAdKDgAIMIleb3Kdvkwx2jnpODwZWZqUn6+i2min9NCiSd4jE5yaqrjcyFmsOejUlhaKnk8pmMAAL4CBQcARLjJhYX8YT1Kk6ZPH/P3Zt90E/s9Sk4vtifk5LiUJHZMLihw9P1O/o/EonFZWTzBCgAsQMEBABFu/OTJpiNYJ93Bnvl4LOyoOd0zJz+vWOXkYjvZ5+Nw0THgtQEAIh8FBwBEuFT+qB615NRUJYzxAo6LmNFz+jvKO+Oj52TP2e+x4bUYACIfBQcARLj4hATTEaw01neo45OSXE4S/RKTkx19fzAYdClJ7HDyuhDHa8qYjLU0BQCEDwUHAAAAAACwHgUHAAAAAACwHgUHAAAAAACwHgUHAAAAAACwHgUHAAAAAACwHgUHAAAAIs6BAwf0bkWF6RgAAIvwnDAAwIg0NTXp17/5jYaGhj7/t7y8PG3csEEej8dgMgDRZmBgQOt/8Qu1tLTo0Ucf1aO/+pXpSAAAC1BwAAC+UlNTk1avXq3aurovfa2lpUW/fvZZSg4Artm+Y4daWloUFxenFXffbToOAMAS3KICALiu65UbkrRjxw5t2LhRwWAwzMkARKOBgQFt3bpVknTPPfeoqKjIcCIAgC0oOAAA13RlubF582Z1tLero71dtTU1Kisrk0TJAcA9///pjQ2PPGI6DgDAIhQcAICrunDhwpfKjU0bN37+9czMTL26a9cXSo7y8nIjWQFEBz69AQBwgoIDAHBVH50583m58fDDD3+h3PjMZyXHjYWFkj596gEAjBWf3gAAOEHBAQD4SnPnzr3m1zIzM5U7bVoY0wCIRnx6AwDgFAUHAAAAjOPTGwAAp/4DAAD//+zdXWxUdR7G8YfZKimIA9QU3MWyEdQYdiVN2EAwSqKJrIsxEdPCFjCY1b3QCy6MeiMXhg1cACYCiRFdClgWllRsCkaLQlukVNtS+iLs8tJC24GWVsrM0HZop+3shdhYttCXc2b+c858P1fNzDn/8+TQtMzT3zmHggMAAOCW2tpavbR0qV5aupRLrmKI6Q0AgB0oOAAAAG4JBIMqLi5WcXGxrra2mo6TMJjeAADYgYIDADAkz7hxA19nZ2fL7/cPuV1hYaHKyspiFQuAyzC9AQCwCwUHAGBICxYs0CuvvCJJqqioUOayZf9XchQWFmrlqlUKhUImIgJwAaY3AAB2STIdAAAQnzwejz7YvFmStHv37oGS49VXX5UkBQIBrVu3jnIDwJgxvQEAsBMFBwDgjoYqOSoqKgZtk5ycrClTpujKlSsmIrpOY2Oj/r1//7Db/XnxYj4MWnS8pESlpaWDXmtqahr4uqCgQD6fb9D7c+bM0V+efz4m+RIB0xsAADtRcAAA7ur2kuPXkpOTlfPZZ9qydSsFh00am5q0YcOGYbebMWMGBYdFpaWldz3X+fn5ys/PH/TaypUrKThswvQGAMBuFBwAgGH9UnJkZmSoPxIZeH36tGmaPXu2tmzdajAdACdiegMAYDcKDgDAiHg8Hi1cuNB0DNf707x5qjp1atjtUlJSYpDG3f7++utalpk56LWTJ0/qb6+9Jkn6x7p1euGFFwa9P3HixJjlczOmNwAA0UDBAQC4q97eXiUl8esiVsaPH6+0tDTTMRKC1+uV1+sd9Frjr+7BMWXqVP4tooTpDQBANPCYWADAHdXU1Oipp59WTU3NXbfr6emJUSIATsf0BgAgWig4AABDCgQCyly2TGfPnlVGZuYdS45NmzcPPIliytSpsYwIwIGY3gAARAsFBwBgSF6vV2vXrpXH41FbW9uQJcemzZu1fv16SdKshx/WPz/91ERUAA7B9AYAIJq4qBoAcEcrsrIkSWvWrBkoORYvXizp5wmPgwcPSvq53Dhw4IAeeughY1kBOzz6yCMDH8Dnz59vOI37ML0BAIgmCg4AwF3dXnLk5OQMep9yA26Smpqqvy5fbjqGKzG9AQCINi5RAQAMa0VWlj788EN5PIN/bVBuABgppjcAANHGBAcAYERWZGUNTHMAwGgwvQEAiAUmOAAAABBVTG8AAGKBggMAAABR9fVXX0liegMAEF1cogIAAICoys3N1RdffKH09HTTUQAALkbBAQAAgKhKSkpSRkaG6RgAAJfjEhUAAAAAAOB4FBwAAAAAAMDxKDgAAAAAAIDjUXAAAAAAAADHo+AAAAAAAACOR8EBAAAAAAAcj4IDAOJcVyBgOoLj9Pf1KdzdPaZ9uzs7bU7jfjdv3LC0f09Xl01JEkdXMDjmfUMW9k1knX6/6QgAgGFQcABAnOM/1aPX0d6u/r6+Me3bxfkeNavfo8G2NpuSJI6u69eN7JvI+NkAAPGPggMA4py/pcV0BMexcs78zc02JkkMVr9HOeejZ+Wc94bDfFgfg472dtMRAADDoOAAgDh3ralJHdeumY7hKI01NWPet6WuTt1cMjEqVs63JDXW1tqUJEFEIpbP2aWqKpvCJIaW8+fVEwqZjgEAGAYFBwDEu0hE9ZWVplM4Sl1Z2Zj37QuHdenUKRvTuFwkorrycktLNP34o/rCYZsCuV/LhQvqtHiZCd/jo3PBws8UAEDsUHAAgAOcKSw0HcExms+dU/vly5bWOM35HrFLVVWWP2z3hcM6U1RkT6AEcProUctrXKys5Gajo3D2+HHTEQAAI0DBAQAO0HzunM6WlJiO4QhF2dmW12ioqlIDI/zDivT369iuXbasVbJ3L5cAjMA1n0+1R45YXqcnFNKJfftsSOR+5Xl53AgXAByCggMAHOL4nj3cG2IYZ0tK1HL+vC1rFe7Yod6eHlvWcqvKQ4d0zeezZa1QMKiyAwdsWcvNinbsUKS/35a1ag4fVsuFC7as5VbBtjaVff656RgAgBGi4AAAhwi2tqpg61bTMeJWu8+nI9u327be9StXdPSTT2xbz22u1tfr+J49tq5ZkZdn+X4ebvb9/v2Wb+h6uy8/+EDdnZ22rukW/X19OrRxI5NFAOAgFBwA4CB15eWqyMszHSPu9IRCOrhpk+0f1E4XFqr2m29sXdMNugIBHdq4Uf19fbauG4lEVLBtG49GHkJDdbVK9++3fd1ga6sKtm2zfV03KNqxQ1fr603HAACMAgUHADjMdzk5+nrLFoVv3jQdJS5cra/XnrffVrtNl0rc7tuPP9aR7du5XOWWhupqffbWW1G7J0F3Z6f2vvuupSfhuEmkv18/5OYqb/36qB2jrrxc/3rnHYqlW7oCAX3+/vuqLigwHQUAMErjIpFIxHQIALCiaPduHd2503SMmJv84IN67o039LvHHzcdxZgT+/bph9zcmBzrgbQ0Pffmm5o2a1ZMjhdvwt3dOrF3ryoPHYrZMR9ftEiLVq9W8qRJMTtmPPE3N+vwRx/p8pkzMTnevcnJWrh8udKXLInJ8eLRf7/7TkXZ2Qn5hJmM997TH595xnQMALCEggOA4yVqwfGLPzz7rOa//LLuT001HSVmLp48qaKdO+Vvbo75sdOXLNG8F1/UfSkpMT+2Kee//17Hdu0y8iSJ5EmT9NSqVXr0ySd1z/jxMT++CV1+v2q//dbYU06mzZqlRatXJ1R52nrxoo7n5Kihutp0FGMoOAC4AQUHAMdL9ILjFykzZiht7lxNnj5dEyZPVvKkSRrncf6ViOGbN9UVCKjz+nW11terobo6Lm7698DMmZr5xBO6PzXVXec7FFJXIKCO9nY1nzsn3+nTCnd3m44lSZo5d65++9hjui8lRRO8Xt07YYLpSNZFIrrZ0aFOv1/BtjY11dbqal2d6VSSfi6Xfp+erpS0NN03daomeL36zT33mI5lWX9vr0LBoDr9frX7fLpYWamO9nbTsYyj4ADgBkmmAwAA7HHN57PtkZ0Y3k8NDfqpocF0jITSUF2d0H9hj7XQjRv6z7FjpmMAADBizv9TEwAAAAAASHgUHAAAAAAAwPEoOAAAAAAAgONRcAAAAAAAAMej4AAAAAAAAI5HwQEAAAAAAByPggMAAAAAADgeBQcAAAAAAHA8Cg4AAAAAAOB4FBwAAAAAAMDxKDgAAAAAAIDjUXAAAAAAAADHo+AAAAAAAACOR8EBAAAAAAAcj4IDAAAAAAA4HgUHAAAAAABwPAoOAAAAAADgeBQcAAAAAADA8Sg4AAAAAACA41FwAAAAAAAAx6PgAAAAAAAAjvc/AAAA///s3X1QVPe9x/HPLsIKKA+iggooxEC8Sgxo9Bo1JmkTBYw2GjTVQIzT2NiEEBXz1HQmU3u93k4wl7TmoTFVHNsZm46Jk5leczN1ZOamcepDIjFjzIhGKNbIg4AWRQXuHwmMD8vDcs7u2bP7fs34h7t7fufjAc+wH77nLAUHAAAAAACwPQoOAAAAAABgexQcAAAAAADA9gZYHQAAYK6BgwYpIjpa4VFRcjjt32NfvXxZLU1Naj571uoobg0cPFiR0dEaGBUlh8NhdRzDrly6pJamJp2vq7M6SrcGDRmiiOhohUVEWB3FuI4OXbpwQS1NTWpparI6jVsDQkM1KC5O4VFRCgkNtTqOYe1tbbrY3KyWxka1trRYHQcAYCIKDgAIAP92zz1KycpS8sSJGhgZaXUcr6mrqtI3hw7p63379O3x45ZkCB04UOnTp2v0xIkBf7zPnjihk599pq//9jfVnTplWY6YhASlz5ihMZmZGpmeblkOb7vS2qrqL77QN98f84vnz1uWJTkjQ7dMmaIxmZmKSUiwLIe3XWho0DeffaYTBw6ocv9+q+MAAAxydHR0dFgdAgCM2Lttm/Zs3Wp1DEuMnjhR9/3kJ4oZMcLqKL7V0aEv/vpXffKHP/j0TeDoiRP1wyefVNSwYT7bpz/o6OjQ53/5iz754x91pbXVZ/sNCQ3V5PnzNXXhwoCYHPDExfPnVb51q46Wl/t0v1HDhumHTz6p0RMn+nS//uDbykr976ZNqquqsjqKJfJeflkZ991ndQwAMISCA4DtBWPBET54sO5Zvly3zZxpdRRL+epNYGRsrO4uKAj6491cW6u9W7ao8u9/9/q+Ro0bpwd+9rPgK+9ucOrwYe3ZvFmN//ynV/fjDAlRZm6upi1erFCXy6v78mftbW06sGuX9r33ntquXLE6jk9RcAAIBCGvvPLKK1aHAAAjvjl8WCc//9zqGD4Tn5qqeS+8oOSMDKujWC7U5dLYqVMVGROj6ooKtbe3m76P+NRU/ejnP1fi+PGmr203rshIpU2bJofDoZqjRyVv/I7E4dDk+fM1p7BQ4VFR5q9vMzEJCUq/6y41njmjczU1XtnHwMhIZRcVKTMnRyEDgvvqZYfTqVHjxilxwgRVVVTochDdo2P83XcrPiXF6hgAYIj97z4HAEHEFRmpuWvXKi4pyeoofuX2Bx7QnQ89ZPq6ETEx+tFLLwX0PQg85XA69e+LFikzJ8cr66dOmqSZ+flyhoR4ZX07ioiJUU5RkeISE72y/uzCQt0yZYpX1rarUbfdpgeLi/k+BACboeAAABuZU1gYdPd/6KupeXlKmjDBtPUcDodyV61SREyMaWsGkpn5+YofO9bUNYckJmpOYaGpawaKAS6XcouLNcDky0ey5s5V6uTJpq4ZKOLHjtXdBQVWxwAAeICCAwBsYvy99/JGpAcOh0O5q1crLDzclPUy7r+fy1J64AwJ0eynnzb15p+zn3pKrgD+VBqj4hITNWvZMtPWGzx0qGYsXWraeoEoMzdXI9LSrI4BAOgjCg4AsIGw8HDNzM+3OobfC4+K0pSFC01Z565HHjEhUWCLS0xU1ty5pqyVPn26Em691ZS1AlnGD35g2qUqM/Pzg+7TafrDzFIJAOBdFBwAYAMZ99/PDRf7KDMnR66ICMNrcLz7ZvK8eaasM9WEYioYOJxO3blggeF14pKTlT59ugmJAt+ItDSlTJpkdQwAQB9QcACADaRNm2Z1BNsYEBamMZmZhtbgUqC+Gzh4sOFLeYaMGqW45GSTEgW+1MmTDU9epPKG3SOcEwDAHig4AMDPhYWHK8HkmzkGOiMFR2RsrIaNHm1imsBntFDiEzw844qIMHxfiLEcc4+kZmVJDofVMQAAvaDgAAA/Nzw1lR+sPTRszJh+b5tw660cbw8ZfbM9ZNQok5IEj+EpKYa2N/J/JBgNiovjE6wAwAYoOADAz0UPH251BNuJMnDMIvlYWI8ZPWZGvl7BysibbVdkJDcX7QfODQDg/yg4AMDPRfBDtcdcEREa0M83cLyJ8ZzR71F+M+45I8ec490/nIsBwP9RcACAnwsZMMDqCLbU399Qh4SFmZwk8IW6XIa27+joMClJ8DByXnByTumX/pamAADfoeAAAAAAAAC2R8EBAAAAAABsj4IDAAAAAADYHhdhAgAA9FFVVZWqqquve+zOyZPlMngfEgAAYBwFBwAAQB9UVFQoLy9PtXV11z0+Z84cbfn97yk5AACwGJeoAAAA9KK7ckOSdu/erceXL1dra6sFyQAAQCcmOAAAfVJdXa2Nr72mtra2rseSk5O1ZvVqORwOC5MB3nVtueF0OvX8888rMTFRkvTBBx/o448/7io5mOQAAMA6FBwAgF5VV1drwYIFqjxx4qbnampqtLGkhJIDAenGcuP111/Xkh//uOv5BQ89pGWPP66PPvqIkgMAAItxiQoAoEc9lRuSVFZWptVr1qijo8PHyQDvO/rVV6pvaHBbbkiSy+XS1i1bNHv2bEnfXa6ya9cuK6ICABD0KDgAAN26sdx46aWX1FBfr4b6elUeP65JkyZJouRA4Fq8aJFKS0vdlhudXC6XVq5c2fX3tvZ2X8UDAADXoOAAALhVW1t7U7lRvGZN1/OxsbH6044d15UcL7zwgiVZAW9aumRJt+WGJDU2NmrdunVdfw8fONAXsQAAwA0oOAAAbh37+uuucmPlypXXlRudOkuOW1JTJUl79uzxacZAtG/fPp05c6bH1zQ3N2vv3r2+CWRjbW1t2r1793U3xnXn+PHjOnLkSL/20djYqLxFi3Tw4EFJUkFBgebPn9+vtQAAgDEUHACAXk2YMKHb52JjY5WYlOTDNIHr8eXLlZObq//csKHH17319ttasHChsnNydOXKFR+ls5eGhgbNmDlTS5Yu1Xt//nOPr1373HO659579fIvfuHRPtyVG69t3MgNdwEAsAgFBwAAfmLcuHGSpB07dujkyZNuX9PU1KR33nlHkpSWlqbQ0FCf5bOTIUOGKCEhQZJUWlra7RTH/33yicrLy9Xe3t5jkXcjyg0AAPwPBQcAAH7ipytWKC4uTpcvX9Z/l5a6fc3bv/ud6uvrFRYWpmeLinyc0F7WfH9Z1bFjx7qd4igpKZEkpaenK+/hh/u0LuUGAAD+iYIDAAA/ER0drSeeeEKS+ymOa6c3Fi9erJSUFJ9ntJMZ06dr1qxZktxPcXROb0hSUVGRQkJCel2TcgMAAP9FwQEA8EhVVZWqqqpUX19vdZSA1NMUB9MbnutpisPT6Q3KDWNaW1u7zh99/XP69GmrYwMAbGSA1QEAAPZyR2amJOnRRx/V691cRoH+65zi2LBhg3bs2KFni4qUkpLC9EY/dU5xlJeXq7S0VHkPP6yQkBCPpzcoN4zbf+CA5s2b59E2t6Smav/+/V5KBAAINExwAADgZ9xNcTC90X/upjg8md6g3AAAwB6Y4AAAeOTFF1+UJI0fP97iJIHrximOkSNGaPO770pieqM/rp3iKCkp0Zdfftnn6Y0by41hQ4dq5MiRevX7gsSdObNnKyMjw9x/RABITkrqOn/0VVRUlJfSAAACEQUHAMAja4uLrY4QFH66YoXeeOMNNTc3679+/euux4uY3uiXZ4uKVF5ersrKSm3atEnSd5c/9Da9sXrNmq5yQ5Jq6+q0YcOGHrdJTEyk4HAjOTmZ8wcAwKu4RAUAAD906tQpNTc33/T4sWPHLEhjf0e/+uqmx749e7bXm+WeO3fOW5EAAIDJmOAAAMAPlWzcKElKSkrS+++/rxUrVujQoUPauHGjsufMsTidvVy6dKlrauPBuXNVXFysnNxcXbhwQb/57W+17pe/7Hbbt996S5cuXfJof3FxcYbyBqoDBw5o5cqVHm0zcuRI7dq1y0uJAACBhoIDAAA/U1FRoQ8//FCS9NRTTyk1JUWrVq1Sfn6+Dh48qP/ZvZuSwwNby8pUU1Mjp9Op4uJiZWRkqKCgQG+++abKyspU+PTTGj58uNttu3scnrvU2qrKEyesjgEACGAUHACAXl25fLnH5y/38jw8c+30xmMFBZKknOxsZWVlMcXhoeumNx58sOveGM8UFmrbtm19muKAOaKjojRr1iyPtomPj/dSGgBAIKLgAAC4FR0VJafTqfb2dv3H+vW64447dPvtt9/0uldLSvTpp59KkmKHDPF1zIBz4/SGy+WSJDkcDqY4+uHa6Y3Vq1Z1PR4fH9/nKQ6YIyMjQ+/v3Gl1DABAAOMmowAAtzIyMlRaWiqn06na2lrlLVqkioqK617zakmJ1q9fL+m7T6R4d/NmK6IGFHfTG506pzgkaeP3r0P3upve6PRMYaEiIyO7pjgAAIC9UXAAALq1dMmSm0qOZ4qK9ExRkR5btuy6cmPnzp1KSkqyOLG9dTe90alzikNS1xQHutfd9EanzikOSSorK9PZs2d9HREAAJiIggMA0KMbS47t27dr+/btXW/EKTfM09P0RiemOPqmt+mNTkxxAAAQOCg4AAC9urbkuBblhrmys7OVlpbmdnqjk8Ph0OrVqzVq1CgtXLhQV69e9XFKe2hvb1d+fr6GDh3qdnqjU3x8vB577DFlZWVp5owZPkwIAADMxk1GAQB9snTJEi1dssTqGAHtkcWL9cjixb2+Lic7WznZ2T5IZF8RERF6bu1aPbd2ba+v/dW6dT5IBAAAvI0JDgAAAAAAYHsUHAAAAAAAwPYoOAAAAAAAgO1RcAAAAAAAANuj4AAAAAAAALZHwQEAAAAAAGyPggMAAAAAANgeBQcAAAAAALA9Cg4AAAAAAGB7FBwAAAAAAMD2KDgAwM+dr6uzOoLttLa0qLWlpV/btjQ2mpwm8F1oaDC0Pd/jnjNyzC5wvPvlX5wbAMDvUXAAgJ/jh2rPGSkpms6eNTFJcGiurTW0/b/OnTMpSfAwcl64eP682tvaTEwTHIx+nwMAvI+CAwD8XMM//mF1BNsxcsw43p5rOnPG0PYNNTUmJQkeRr5P29va1GjwaxZsLl+8qGbKTwDwexQcAODnmmtrde70aatj2Mo3n3/e723PnT7Nb2o9dOrwYWPbG/h6BaO2q1dVfeSIoTUq9+83KU1wMHq8AQC+8f8AAAD//+zd32/V9R3H8bcCLZSWQ1spvxE6UJABnW6ZOjLYlE0w2/TKi8V4Ybwxy7LNG+PNvPBmi2ExJruQMBMlYS5q5gIqSypMNolUBVH8WToUjBVTrJVSSlu6iy3LlsyJnO85n36/5/H4Az7fZw4X59sX53yPgQMgB7r370+dkB/j42X/8VbOQFJrxkZH4++vvFLWGR+++26c6uvLqKj4jr/+epwdGirrjKMHDmRUUxu8XgD5YOAAyIFDu3bF2MhI6oxcePuFF8p+psPBnTtj/Ny5jIqK7fDu3WX/sR3j43Hw2WezCaoBr+zcWfYZH7z5ZvT5OtZ5GRoYiLf27k2dAcB5MHAA5MDAxx9n8kdN0Y2NjMTeRx8t+5y+48fjtc7ODIqK7ezQULywfXsmZ72yY4evBp2H9w4ezOTTBOPnzsVfHn44g6Li2/voo+WPeABUhYEDICdefPxx/+P6BfY99lhmPzn6123bPFTwC+zeujWGBgYyOWtsZCT2/O53mZxVVMODg7E7w9fovVdfjcPPPZfZeUV07LXX4vDu3akzADhPBg6AnBg5cyZ23n9/jA4Pp06ZkHpeeim6/vjHzM4bHhyMHZs3+znNz/HGnj3xxp49mZ55pKsr03/Donn2wQczf+Dwc1u3Gk4/x+n+/nj6gQdSZwDwJRg4AHKk7/jx+PNvf5s6Y8LpO3Ysnn3wwczP/ai7Ozofeijzc/Puo+7u6NyypSJn/3Xbtuh56aWKnJ1nLz7xREVel9Hh4dhx//1x6uTJzM/Os7NDQ7Fj8+Y43d+fOgWAL8HAAZAzb//tb/HkfffF8OnTqVMmhPcPHYrf33NPDA8OVuT81zs748n77vPJmX850tUVf/jlLyv6evzp17+Og888U7Hz82RsdDQ6H3oos2ed/C8njx+P7XffHR/19FTsGnkycOJEbL/77vjgjTdSpwDwJU269957700dAVCOIy+/HO8dOpQ6o6o+7e2Nd/fti8bm5mhduDB1ThJDn30WL2zfHs9t2RJjo6MVvdanvb1xpKsrmmbNiuZ58yp6rYlq8JNPYu8jj8TzjzxS+a/tjI/H0QMHou/YsWhrb4+pjY2Vvd4E9eE778TTv/lNHKnCz0SfHRqKt/bujXOjozFn2bK4eNKkil9zInq9szN2bN6c2bN88uSKtWtjdnt76gyAslw0Pj4+njoCoBw7Hngg9j/1VOqMZNqWLImOTZtiyZVXRkOplDqn4j7q7o7u/fvjwNNPx8iZM1W//vzly2P1978fizs6YmpTU9WvX20fvvNOvLtvX7y6a1eMnj2bpGHV9dfHZd/6VixatSrJ9atpeHAw3j90KN58/vk40tWVpGF6c3N0bNwYX/n616N10aIkDdXU39sbf3/55Tj4zDPR39ubOieZH911V1x1442pMwDKYuAAcu/JX/0qDu7alTpjQpi1eHHMnDMnGkqlmDZjRlx00UWpk8o2Mjwcpz/9NAY/+SRO9PTE0GefpU76t7b29ii1tRXq9T575sw/X++TJ+NET0+cqdBXfy7ElPr6mL10aTS1tkZDqRR106alTirbeEScOXUqTvf3x8CJE9Hb3Z066b80trbGJYsWRWNLSzSUSjFp8uTUSWU7NzYWpwcG4nR/f/QdO1bTo8Z/uvGnP41v3nRT6gyAsuT/XQqoeWMjI6kTJoyPjx6Nj48eTZ1RM0709MQJzy2ompHh4Th++HDqjJpyqq8vTvX1pc6gCryXAkXgIaNA7vkZTwAojw91A0Vg4AByz8ABAAAYOIDcq9Wn/QNAVorwfBUAAweQewYOACjPxQYOoAAMHEDuTZoyJXUCAOTalLq61AkAZTNwALnnpgwAyjOlvj51AkDZDBxA7rkpA4Dy1E2bljoBoGwGDiD36qdPT50AALk2tbExdQJA2QwcQO4ZOACgPAYOoAgMHEDuNTQ1pU4AgFxrmDEjdQJA2QwcQO41zJyZOgEAcq2xpSV1AkDZDBxA7k03cADABWsolVInAGTCwAHkXlNra+oEAMitGZdckjoBIBMGDiD33JgBwIWbOXt26gSATBg4gEJwcwYAF6bU1pY6ASATBg6gEGbOmZM6AQByqXnu3NQJAJkwcACF4OYMAC5My/z5qRMAMmHgAAqhZd681AkAkEveQ4GiMHAAheDmDAAujPdQoCgMHEAhtC1enDoBAHKndcGCmFxXlzoDIBMGDqAQZre3p04AgNzx/gkUiYEDKAyf4gCAL2eOgQMoEAMHUBhzly1LnQAAueK9EygSAwdQGAtWrEidAAC5svCKK1InAGTGwAEUhoEDAM5fy7x50VAqpc4AyIyBAyiM+Zdf7knwAHCeFq5cmToBIFMGDqBQfNQWAM7P4tWrUycAZMrAARTK4jVrUicAQC4s6ehInQCQKQMHUCgGDgD4Yo0tLdEyf37qDIBMGTiAQvEVFQD4Yku/8Y3UCQCZM3AAhTK5ri4uv+aa1BkAMKFdfvXVqRMAMmfgAArnMjdtAPB/ea8EisjAARSO/5UCgM/3lauuiin19akzADJn4AAKZ8asWbFg+fLUGQAwIa1cty51AkBFGDiAQvrqd7+bOgEAJiQDB1BUBg6gkFZfd13qBACYcJZfe21Ma2pKnQFQEQYOoJAam5tjSUdH6gwAmFBWX3996gSAijFwAIXV8b3vpU4AgAlj6vTp8dX161NnAFSMgQMorJXr18fkurrUGQAwIazZsCF1AkBFGTiAwqqbOjVWedgoAERExJUbN6ZOAKgoAwdQaG7mACBidnt7zF22LHUGQEUZOIBCu3TVqpjd3p46AwCSWnvLLakTACrOwAEU3vpbb02dAADJNLW2ev4GUBMMHEDhrVy3Lprnzk2dAQBJfPvHP06dAFAVBg6gJqxzcwdADWpsbvY8KqBmGDiAmnDlpk0x69JLU2cAQFVtuOOOmFJfnzoDoCoMHEDN+MHPfpY6AQCqZs7SpfG1G25InQFQNQYOoGYsXrMmVqxdmzoDAKrihz//eeoEgKoycAA1ZdNPfpI6AQAqbs2GDbFgxYrUGQBVZeAAakqprS2+c9ttqTMAoGLqGxpi4513ps4AqDoDB1BzvnPbbVFqa0udAQAVcd3tt0dDqZQ6A6DqDBxATfrhL36ROgEAMjd32bK4+uabU2cAJPEPAAAA///s3U9o13Ucx/F3OrflZts0ncoMNzexMiXc1PxLQhBtinnIFpgReFNBD3oS/6KoiFe9ePIQKIGkEGGCl5SpIIaI+aeMxRTzX9nQJOziQSJy6vLz++z3eMD3/rp94Mn3+/kKHEBRapo8OSa1tqaeAQC9pqS0ND5asyb1DIBkBA6gaLUuWxZD6upSzwCAXvHB0qXONaCoCRxA0SopLY329etTzwCA5/b6jBnR3NaWegZAUgIHUNSG1dfHh6tWpZ4BAM/s1VGjnGUAIXAAxNvvvx8z29tTzwCApzawqio+3bYtyisrU08BSE7gAIiI95YsiTdmzUo9AwB6bEBZWSzeti2qa2tTTwEoCAIHwCMfr1sXoydMSD0DAHpk4bp1MaKpKfUMgIIhcAA8ZtHWrTFy7NjUMwDgP32yaVOMnTIl9QyAgiJwADxmQFlZfLZjR9Q2NKSeAgD/auHatTFu2rTUMwAKjsAB8A/lFRXx+c6dIgcABWfB6tXx5uzZqWcAFKSXHj58+DD1CIBCdL+7O75YuzYunTqVegoARW5AWVm0b9gQjS0tqacAFCyBA+AJ9m/eHGcOH049A4AiVVlTE4u3b/dmIcATCBwAPXB07974ds+e1DMAKDK1DQ2xaMuWeGXo0NRTAAqewAHQQz+ePh37Nm6Mu7dupZ4CQBGYMn9+tC5fnnoGQDYEDoCn0H3nTny5dWv8cPx46ikA9FEDq6piwerVMXbq1NRTALIicAA8g44DB+Kb3bvjz3v3Uk8BoA8ZN316zFu5MipralJPAciOwAHwjO7evBlf79rlAlIAnlv18OExb8UKf0kBeA4CB8Bz+unMmfhq5864fuVK6ikAZKaktDRmtrfHu4sXp54CkD2BA6CXnD16NI7t3x8/nz2begoABa6iujqa29piyvz5UTl4cOo5AH2CwAHQy345fz6+27cvvj9yJPUUAArMsPr6eGfBgpjU2pp6CkCfI3AA/E/u3rwZJw8ejJOHDsVv16+nngNAQm/NmRMtc+fG6IkTU08B6LMEDoAX4PyxY9Fx4EBc6OhIPQWAF2TwyJHR3NYWk1pb4+VBg1LPAejzBA6AF+iP27fj4okTcaGjIy6ePBndd+6kngRALxo9cWI0TZ4cTS0tMbyxMfUcgKIicAAk1HnuXFw6dSq6Ll6Ma5cvx43OztSTAOihypqaGFZfHyMaG+O18eNjTHNzlJaXp54FULQEDoAC03XhQly7fDl+7eyMW11dcfvq1bh97Vr8fuNG6mkARae8oiKqamuj+tEzpK4uahsaYviYMT47ASgwAgdARh7cvx9/PXiQegZAn9evf/8oKSuLfv36pZ4CQA8JHAAAAED2JGkAAAAgewIHAAAAkD2BAwAAAMiewAEAAABkT+AAAAAAsidwAAAAANkTOAAAAIDsCRwAAABA9gQOAAAAIHsCBwAAAJA9gQMAAADInsABAAAAZE/gAAAAALIncAAAAADZEzgAAACA7AkcAAAAQPYEDgAAACB7AgcAAACQPYEDAAAAyJ7AAQAAAGRP4AAAAACyJ3AAAAAA2RM4AAAAgOwJHAAAAED2BA4AAAAgewIHAAAAkD2BAwAAAMiewAEAAABkT+AAAAAAsidwAAAAANkTOAAAAIDsCRwAAABA9gQOAAAAIHsCBwAAAJA9gQMAAADInsABAAAAZE/gAAAAALL3NwAAAP//7NgBCQAAAICg/6/bEegMBQcAAACwJzgAAACAPcEBAAAA7AkOAAAAYE9wAAAAAHuCAwAAANgTHAAAAMCe4AAAAAD2BAcAAACwJzgAAACAPcEBAAAA7AkOAAAAYE9wAAAAAHuCAwAAANgTHAAAAMCe4AAAAAD2BAcAAACwJzgAAACAPcEBAAAA7AkOAAAAYE9wAAAAAHuCAwAAANgTHAAAAMCe4AAAAAD2BAcAAACwJzgAAACAPcEBAAAA7AkOAAAAYE9wAAAAAHuCAwAAANgTHAAAAMCe4AAAAAD2BAcAAACwJzgAAACAPcEBAAAA7AkOAAAAYE9wAAAAAHuCAwAAANgTHAAAAMCe4AAAAAD2BAcAAACwJzgAAACAPcEBAAAA7AkOAAAAYE9wAAAAAHuCAwAAANgTHAAAAMCe4AAAAAD2BAcAAACwJzgAAACAPcEBAAAA7AkOAAAAYE9wAAAAAHuCAwAAANgTHAAAAMCe4AAAAAD2BAcAAACwJzgAAACAPcEBAAAA7AkOAAAAYE9wAAAAAHuCAwAAANgTHAAAAMBeAAAA///s2AEJAAAAgKD/r9sR6AwFBwAAALAnOAAAAIA9wQEAAADsCQ4AAABgT3AAAAAAe4IDAAAA2BMcAAAAwJ7gAAAAAPYEBwAAALAnOAAAAIA9wQEAAADsCQ4AAABgT3AAAAAAe4IDAAAA2BMcAAAAwJ7gAAAAAPYEBwAAALAnOAAAAIA9wQEAAADsCQ4AAABgT3AAAAAAe4IDAAAA2BMcAAAAwJ7gAAAAAPYEBwAAALAnOAAAAIA9wQEAAADsCQ4AAABgT3AAAAAAe4IDAAAA2BMcAAAAwJ7gAAAAAPYEBwAAALAnOAAAAIA9wQEAAADsCQ4AAABgT3AAAAAAe4IDAAAA2BMcAAAAwJ7gAAAAAPYEBwAAALAnOAAAAIA9wQEAAADsCQ4AAABgT3AAAAAAe4IDAAAA2BMcAAAAwJ7gAAAAAPYEBwAAALAnOAAAAIA9wQEAAADsCQ4AAABgT3AAAAAAe4IDAAAA2BMcAAAAwJ7gAAAAAPYEBwAAALAnOAAAAIA9wQEAAADsCQ4AAABgT3AAAAAAe4IDAAAA2BMcAAAAwJ7gAAAAAPYCAAD//+3YAQkAAACAoP+v2xHoDAUHAAAAsCc4AAAAgD3BAQAAAOwJDgAAAGBPcAAAAAB7ggMAAADYExwAAADAnuAAAAAA9gQHAAAAsCc4AAAAgD3BAQAAAOwJDgAAAGBPcAAAAAB7ggMAAADYExwAAADAnuAAAAAA9gQHAAAAsCc4AAAAgD3BAQAAAOwJDgAAAGBPcAAAAAB7ggMAAADYExwAAADAnuAAAAAA9gQHAAAAsCc4AAAAgD3BAQAAAOwJDgAAAGBPcAAAAAB7ggMAAADYExwAAADAnuAAAAAA9gQHAAAAsCc4AAAAgD3BAQAAAOwJDgAAAGBPcAAAAAB7ggMAAADYExwAAADAnuAAAAAA9gQHAAAAsCc4AAAAgD3BAQAAAOwJDgAAAGBPcAAAAAB7ggMAAADYExwAAADAnuAAAAAA9gQHAAAAsCc4AAAAgD3BAQAAAOwJDgAAAGBPcAAAAAB7ggMAAADYExwAAADAnuAAAAAA9gQHAAAAsCc4AAAAgD3BAQAAAOwJDgAAAGBPcAAAAAB7ggMAAADYExwAAADAnuAAAAAA9gKXlIuMcx/wvAAAAABJRU5ErkJggg==;" vertex="1" parent="7">
                    <mxGeometry x="240" y="140" width="217" height="217" as="geometry"/>
                </mxCell>
                <mxCell id="9" value="&lt;font style=&quot;font-size: 24px;&quot;&gt;Factoring Calculator&lt;/font&gt;" style="text;html=1;align=center;verticalAlign=middle;resizable=0;points=[];autosize=1;strokeColor=none;fillColor=none;" vertex="1" parent="7">
                    <mxGeometry x="10" y="140" width="240" height="40" as="geometry"/>
                </mxCell>
                <mxCell id="10" value="Enter a whole positive number, and factor it" style="text;html=1;align=center;verticalAlign=middle;resizable=0;points=[];autosize=1;strokeColor=none;fillColor=none;" vertex="1" parent="7">
                    <mxGeometry x="10" y="180" width="260" height="30" as="geometry"/>
                </mxCell>
                <mxCell id="11" value="Enter Number" style="text;html=1;align=center;verticalAlign=middle;resizable=0;points=[];autosize=1;strokeColor=none;fillColor=none;" vertex="1" parent="7">
                    <mxGeometry x="10" y="200" width="100" height="30" as="geometry"/>
                </mxCell>
                <mxCell id="12" value="_________________" style="text;html=1;align=center;verticalAlign=middle;resizable=0;points=[];autosize=1;strokeColor=none;fillColor=none;" vertex="1" parent="7">
                    <mxGeometry x="-5" y="220" width="140" height="30" as="geometry"/>
                </mxCell>
                <mxCell id="13" value="Calculate" style="whiteSpace=wrap;html=1;" vertex="1" parent="7">
                    <mxGeometry x="10" y="250" width="120" height="30" as="geometry"/>
                </mxCell>
            </root>
        </mxGraphModel>
    </diagram>
</mxfile>